# xmcd
#
# Track frame offsets: 
#        150
#        14844
#        40427
#        60556
#        84217
#        111246
#        149053
#        189639
#        217829
#        253949
#        274754
#
# Disc length: 4060 seconds
#
# Revision: 0
# Processed by: cddbd v1.5.2PL0 Copyright (c) Steve Scherf et al.
# Submitted via: ExactAudioCopy v0.95b4
#
DISCID=a70fda0b
DTITLE=Eric Clapton - 2001-04-01 - The Spektrum - CD1
DYEAR=2001
DGENRE=Blues
TTITLE0=Key To The Highway
TTITLE1=Reptile
TTITLE2=Tears In Heaven
TTITLE3=Bell Bottom blues
TTITLE4=Change The World
TTITLE5=My Father's Eyes
TTITLE6=River Of Tears
TTITLE7=Going Down Slow
TTITLE8=She's Gone
TTITLE9=Got You On My Mind
TTITLE10=Don't Let Me Be Lonely Tonight
EXTD=
EXTT0=
EXTT1=
EXTT2=
EXTT3=
EXTT4=
EXTT5=
EXTT6=
EXTT7=
EXTT8=
EXTT9=
EXTT10=
PLAYORDER=
